<svg width="711" height="340" viewBox="0 0 711 340" fill="none" xmlns="http://www.w3.org/2000/svg">
<path d="M668.778 32.7821C573.037 48.106 451.975 21.4911 403.411 6.26819C344.547 57.4459 319 92.5 255 72.5C216.71 68.42 207.16 38.4372 217.5 72.5C232.547 122.065 226 110 235.5 140.5C236.324 150.334 242 159.5 255 200C262.192 222.405 274.863 241.267 276.5 261.5C278.775 289.624 260.5 313 222.5 336.5C181.027 382.812 107.991 386.304 55.5 401C-3.59673 417.545 -74.525 430.5 -46.5 430.5C-40.6506 431.278 4.43992 444 42.5 437C256.5 437 293.718 356.156 341 326.5C436.86 266.375 425.815 184.715 503.578 169.442C581.341 154.168 788.455 13.6271 668.778 32.7821Z" stroke="#121111" stroke-width="10"/>
</svg>
